<svg xmlns="http://www.w3.org/2000/svg" width="18" height="18" viewBox="0 0 18 18"><defs><style>.a{fill:#fff;}</style></defs><path class="a" d="M15.4,16.4a1.8,1.8,0,1,1-1.8,1.8,1.8,1.8,0,0,1,1.8-1.8M1,2H3.943l.846,1.8H18.1a.9.9,0,0,1,.9.9,1.138,1.138,0,0,1-.108.45L15.67,10.973A1.809,1.809,0,0,1,14.1,11.9H7.39l-.81,1.467-.027.108a.225.225,0,0,0,.225.225H17.2v1.8H6.4a1.8,1.8,0,0,1-1.8-1.8,1.834,1.834,0,0,1,.216-.864l1.224-2.2L2.8,3.8H1V2M6.4,16.4a1.8,1.8,0,1,1-1.8,1.8,1.8,1.8,0,0,1,1.8-1.8m8.1-6.3L17,5.6H5.626L7.75,10.1Z" transform="translate(-1 -2)"/></svg>